# xmcd CD database file
#
# Track frame offsets:
#	150
#	17378
#	29840
#	45712
#	69071
#	79413
#	88506
#	98957
#	109107
#	119800
#	131590
#	145120
#	157535
#	174204
#	187273
#	202173
#	213924
#
# Disc length: 2979 seconds
#
# Revision: 1
# Processed by: cddbd v1.5.2PL0 Copyright (c) Steve Scherf et al.
# Submitted via: CDex 1.70beta2
#
DISCID=e90ba111
DTITLE=Marc Laferrière - Jubilé 1/2
DYEAR=2005
DGENRE=Jazz
TTITLE0=Indian Summer
TTITLE1=Egyptian Fantasy
TTITLE2=Suey
TTITLE3=I Remember Sydney
TTITLE4=Stan and Moka
TTITLE5=Le Plus Mauvais D entre Vous
TTITLE6=Carotte De Bique
TTITLE7=Mam zelle Brijou
TTITLE8=Dixielanders
TTITLE9=Sleepy Morning
TTITLE10=My Blue Heaven
TTITLE11=Volvic Rag
TTITLE12=L enterrement a La New Orleans
TTITLE13=Petite Fleur
TTITLE14=Jeep s Blues
TTITLE15=Flirtissimo
TTITLE16=Heigh Ho Heigh Ho
EXTD=YEAR: 2005
EXTT0=
EXTT1=
EXTT2=
EXTT3=
EXTT4=
EXTT5=
EXTT6=
EXTT7=
EXTT8=
EXTT9=
EXTT10=
EXTT11=
EXTT12=
EXTT13=
EXTT14=
EXTT15=
EXTT16=
PLAYORDER=
